<?xml version="1.0" encoding="UTF-8" standalone="no"?>
<svg
   id="Layer_1"
   data-name="Layer 1"
   viewBox="0 0 1000 1000"
   version="1.1"
   xmlns="http://www.w3.org/2000/svg"
   xmlns:svg="http://www.w3.org/2000/svg">
  <defs
     id="defs256">
    <style
       id="style254">.cls-1{fill:gray;}.cls-2,.cls-3{fill:none;stroke-linecap:round;stroke-linejoin:round;}.cls-2{stroke:gray;stroke-width:56.42px;}.cls-3{stroke:#666766;stroke-width:52.4px;}</style>
  </defs>
  <path
     class="cls-1"
     d="m 608.83,129.38 v 741.24 a 22.57,22.57 0 0 1 -33.49,19.75 l -321,-177.49 H 127.6 A 56.91,56.91 0 0 1 70.68,656 V 344 A 56.91,56.91 0 0 1 127.6,287.08 H 254.29 L 575.34,109.63 a 22.57,22.57 0 0 1 33.49,19.75 z"
     id="path258" />
  <path
     class="cls-2"
     d="m 806,185.82 a 461.85,461.85 0 0 1 0,628.36"
     id="path260" />
  <path
     class="cls-2"
     d="m 698,245.51 a 343.38,343.38 0 0 1 0,509"
     id="path262" />
  <line
     class="cls-3"
     x1="36.78"
     y1="893.22"
     x2="963.22"
     y2="106.78"
     id="line264" />
</svg>
